<svg width="54" height="54" viewBox="0 0 54 54" fill="none" xmlns="http://www.w3.org/2000/svg">
<mask id="path-1-inside-1_534_2930" fill="white">
<circle cx="27" cy="27" r="27" transform="rotate(-90 27 27)"/>
</mask>
<circle cx="27" cy="27" r="27" transform="rotate(-90 27 27)" fill="#252525"/>
<path d="M27 -1.18021e-06C29.832 0.199072 32.5937 0.830046 35.1703 1.85689C45.592 5.90352 52.305 16.585 51.75 27C51.5046 40.1731 39.7322 51.2865 27 51C14.2678 51.2865 2.49541 40.1731 2.25 27C1.69501 16.585 8.40801 5.90353 18.8297 1.85689C21.4063 0.830047 24.168 0.199073 27 -1.18021e-06C24.1687 -0.201112 21.2804 0.0507384 18.4776 0.772624C7.15626 3.50528 -2.03193 14.6133 -2.25 27C-3.19479 42.5906 10.9685 57.4129 27 57C43.0315 57.4129 57.1948 42.5906 56.25 27C56.0319 14.6133 46.8437 3.50527 35.5224 0.772623C32.7196 0.0507379 29.8313 -0.201112 27 -1.18021e-06Z" fill="#ECA900" mask="url(#path-1-inside-1_534_2930)"/>
<rect x="15.6875" y="11.4434" width="38" height="6" rx="3" transform="rotate(45 15.6875 11.4434)" fill="#ECA900"/>
<rect x="42.5586" y="15.6865" width="38" height="6" rx="3" transform="rotate(135 42.5586 15.6865)" fill="#ECA900"/>
</svg>
