<svg width="467" height="72" viewBox="0 0 467 72" fill="none" xmlns="http://www.w3.org/2000/svg">
<mask id="path-1-outside-1_1373_2383" maskUnits="userSpaceOnUse" x="-5.85733e-06" y="-8.74228e-08" width="467" height="72" fill="black">
<rect fill="white" x="-5.85733e-06" y="-8.74228e-08" width="467" height="72"/>
<path d="M466 49C466 58.9411 457.941 67 448 67L23 67C13.0589 67 5 58.9412 5 49L5 23C5 13.0589 13.0589 5 23 5L448 4.99996C457.941 4.99996 466 13.0588 466 23L466 49Z"/>
</mask>
<path d="M466 49C466 58.9411 457.941 67 448 67L23 67C13.0589 67 5 58.9412 5 49L5 23C5 13.0589 13.0589 5 23 5L448 4.99996C457.941 4.99996 466 13.0588 466 23L466 49Z" fill="#252525"/>
<path d="M448 67C431.082 66.7 414.163 66.415 397.245 66.145C272.497 64.1542 147.748 62.9789 23 62.6191C15.749 62.7712 9.24851 56.2113 9.44854 49C9.46497 40.3334 9.47747 31.6667 9.48603 23C9.31583 15.8065 15.8147 9.31989 23 9.5C164.667 9.49998 306.333 8.44823 448 6.34473C456.858 5.97648 465.15 13.887 465.089 23C465.108 24.1734 465.126 25.3469 465.145 26.5204C465.265 34.0136 465.387 41.5068 465.513 49C465.91 58.314 457.601 67.0519 448 67C457.575 67.4144 466.556 58.8618 466.487 49C466.613 41.5068 466.735 34.0136 466.855 26.5204C466.874 25.3469 466.892 24.1734 466.911 23C467.317 12.9371 458.318 3.55718 448 3.65519C306.333 1.55172 164.667 0.499984 23 0.499997C23 0.499997 23 0.499997 23 0.499997C11.0094 0.213851 0.217909 11.0177 0.513962 23C0.522524 31.6667 0.535023 40.3334 0.551457 49C0.285236 60.9646 11.0752 71.6952 23 71.381C147.748 71.0212 272.497 69.8459 397.245 67.855C414.163 67.585 431.082 67.3 448 67Z" fill="#ECA900" mask="url(#path-1-outside-1_1373_2383)"/>
</svg>
