<svg width="103" height="39" viewBox="0 0 103 39" fill="none" xmlns="http://www.w3.org/2000/svg">
<mask id="mask0_117_1033" style="mask-type:luminance" maskUnits="userSpaceOnUse" x="0" y="0" width="103" height="39">
<path d="M0 39H103V0.586567H0V39Z" fill="white"/>
</mask>
<g mask="url(#mask0_117_1033)">
<path d="M4.67944 19.7928L7.12733 17.6163C7.34574 17.4531 7.40015 17.1809 7.40015 17.0186C7.56272 14.4614 7.94391 8.53103 10.5007 0.585423H5.4408C5.06043 0.585423 4.84322 0.858696 4.78813 1.07659C4.78813 1.13102 1.74095 9.50974 1.57763 18.2696L0 19.7928L1.57763 21.3171C1.74095 30.077 4.78813 38.4557 4.78813 38.5102C4.84322 38.7279 5.06043 39 5.4408 39H10.5007C7.94391 31.0556 7.56272 25.1254 7.40015 22.568C7.40015 22.4045 7.34574 22.1337 7.12733 21.9691L4.67944 19.7928ZM39.9916 27.303C39.9916 32.5798 36.4554 33.3409 31.5584 33.3409H27.1513V21.2625H30.6874C35.0946 21.2625 39.9916 21.7526 39.9916 27.303ZM27.1513 16.6911V6.24457H31.0686C34.3874 6.24457 37.9247 7.00673 37.9247 11.2506C37.9247 15.931 34.4963 16.6911 29.9253 16.6911H27.1513ZM21.6554 1.61971V37.967H31.83C38.5775 37.967 45.8136 36.4983 45.8136 27.303C45.8136 22.6768 42.549 19.2484 37.4893 18.4873C41.5703 17.4531 43.5283 14.6246 43.5283 10.434C43.5283 4.34043 38.4681 1.61971 32.375 1.61971H21.6554ZM50.8191 9.34532C51.6899 11.0873 51.7988 15.1145 51.7988 17.8885V37.967H57.2941V24.2C57.2941 19.8472 57.892 17.8885 58.8728 16.4199C60.1238 14.6246 61.9736 13.6448 64.15 13.6448C66.0551 13.6448 67.4139 14.2981 68.3393 15.3312C69.3193 16.4199 69.7547 17.9975 69.7547 21.7526V37.967H75.2506V20.6094C75.2506 15.7124 74.434 13.3726 72.9099 11.6318C71.3335 9.8363 68.9926 8.80202 65.8907 8.80202C61.8636 8.80202 58.6541 10.434 56.9142 13.3726C56.9142 11.5772 56.6954 10.2719 56.3155 9.34532H50.8191ZM87.819 16.9642V6.40804H102.999V1.61971H82.2139V37.967H87.9821V21.807H101.694V16.9642H87.819Z" fill="white"/>
</g>
</svg>
