<svg width="169" height="251" viewBox="0 0 169 251" fill="none" xmlns="http://www.w3.org/2000/svg">
<mask id="path-1-inside-1_1001_1224" fill="white">
<path d="M0 10C0 4.47715 4.47715 0 10 0H159C164.523 0 169 4.47715 169 10V241C169 246.523 164.523 251 159 251H10C4.47716 251 0 246.523 0 241V10Z"/>
</mask>
<path d="M10 0C23.7139 0.0666667 37.4278 0.13 51.1417 0.19C87.0945 0.347298 123.047 0.481686 159 0.593164C164.011 0.488179 168.498 5.01652 168.36 10C168.135 87 168.016 164 168.001 241C168.118 245.794 163.793 250.118 159 250C109.333 250 59.6667 250.044 10 250.131C5.13795 250.26 0.731078 245.879 0.839724 241C0.706368 172.478 0.489793 103.955 0.19 35.4331C0.152909 26.9554 0.114544 18.4777 0.0749055 10C-0.0801565 4.71545 4.67141 -0.101937 10 0C4.67536 -0.157097 -0.178877 4.63132 -0.0749055 10C-0.114544 18.4777 -0.152909 26.9554 -0.19 35.4331C-0.489793 103.955 -0.706368 172.478 -0.839724 241C-0.990112 246.774 4.20883 251.999 10 251.869C59.6667 251.956 109.333 252 159 252C164.86 252.141 170.141 246.86 169.999 241C169.984 164 169.865 87 169.64 10C169.761 4.33025 164.642 -0.747211 159 -0.593164C123.047 -0.481686 87.0945 -0.347298 51.1417 -0.19C37.4278 -0.13 23.7139 -0.0666667 10 0Z" fill="white" mask="url(#path-1-inside-1_1001_1224)"/>
</svg>
