<svg width="106" height="67" viewBox="0 0 106 67" fill="none" xmlns="http://www.w3.org/2000/svg">
<mask id="path-1-outside-1_534_3178" maskUnits="userSpaceOnUse" x="-5.50763e-06" y="-2.62268e-07" width="106" height="67" fill="black">
<rect fill="white" x="-5.50763e-06" y="-2.62268e-07" width="106" height="67"/>
<path d="M103 45C103 54.9411 94.9411 63 85 63L23 63C13.0589 63 5 54.9411 5 45L5 23C5 13.0589 13.0589 5 23 5L85 5C94.9411 5 103 13.0589 103 23L103 45Z"/>
</mask>
<path d="M103 45C103 54.9411 94.9411 63 85 63L23 63C13.0589 63 5 54.9411 5 45L5 23C5 13.0589 13.0589 5 23 5L85 5C94.9411 5 103 13.0589 103 23L103 45Z" fill="#252525"/>
<path d="M85 63C80.315 62.7 75.6299 62.415 70.9449 62.145C54.9633 61.224 38.9816 60.4775 23 59.9056C15.048 59.731 8.51027 52.4641 8.92422 45C9.09218 37.6667 9.22341 30.3333 9.31788 23C9.27325 15.7185 15.8256 9.32621 23 9.5C43.6667 9.5 64.3333 9.20812 85 8.62435C92.6201 8.15246 100.133 14.8033 100.356 23C100.658 30.3333 100.996 37.6667 101.372 45C101.636 49.3196 100.102 53.8084 97.0675 57.1789C94.0984 60.5265 89.6976 62.7207 85 63C89.6882 63.3263 94.6025 61.6752 98.2712 58.3936C102.006 55.11 104.413 50.1768 104.628 45C105.004 37.6667 105.342 30.3333 105.644 23C106.334 12.0209 96.5557 1.38128 85 1.37564C64.3333 0.791881 43.6667 0.500001 23 0.500003C10.9986 0.207535 0.260486 11.1057 0.682118 23C0.776586 30.3333 0.907812 37.6667 1.07578 45C1.02348 56.7117 11.7762 66.7353 23 66.0945C38.9816 65.5225 54.9633 64.776 70.9449 63.855C75.6299 63.585 80.315 63.3 85 63Z" fill="#ECA900" mask="url(#path-1-outside-1_534_3178)"/>
<path d="M37.232 31.792V40.176C37.232 40.656 37.392 40.944 37.872 40.976L40.784 41.168V42H31.248V41.168L33.52 40.976C34 40.944 34.16 40.656 34.16 40.176V22.064C34.16 21.584 34 21.296 33.52 21.264L31.248 21.072V20.24H47.664V25.424H46.832L45.584 21.84C45.424 21.36 45.104 21.264 44.624 21.264H37.232V30.768H41.264C41.744 30.768 42.096 30.64 42.224 30.192L42.992 27.472H43.824V35.088H42.992L42.224 32.368C42.096 31.888 41.744 31.792 41.264 31.792H37.232ZM50.8593 21.424C50.8593 20.432 51.6593 19.792 52.6513 19.792C53.6433 19.792 54.4113 20.432 54.4113 21.424C54.4113 22.416 53.6433 23.088 52.6513 23.088C51.6593 23.088 50.8593 22.416 50.8593 21.424ZM54.0593 28.624V40.176C54.0593 40.656 54.2193 40.912 54.6993 40.976L56.8433 41.168V42H48.4593V41.168L50.6033 40.976C51.0833 40.944 51.2433 40.656 51.2433 40.176V27.856C51.2433 27.376 51.0833 27.216 50.6033 27.216H48.4593V26.384L54.0593 25.68L54.3153 25.936C54.1553 26.576 54.0593 27.536 54.0593 28.624ZM63.778 25.68L64.034 25.936C63.874 26.576 63.778 27.536 63.778 28.624V30.256H63.842C65.186 26.896 67.33 25.68 69.698 25.68C71.938 25.68 74.018 27.088 74.018 30.608V40.176C74.018 40.656 74.178 40.912 74.658 40.976L76.802 41.168V42H69.058V41.168L70.626 40.976C71.074 40.912 71.202 40.656 71.202 40.176V30.96C71.202 29.04 70.498 27.664 68.29 27.664C65.282 27.664 63.778 31.024 63.778 33.68V40.176C63.778 40.656 63.938 40.912 64.418 40.976L66.562 41.168V42H58.178V41.168L60.322 40.976C60.802 40.944 60.962 40.656 60.962 40.176V27.856C60.962 27.376 60.802 27.216 60.322 27.216H58.178V26.384L63.778 25.68Z" fill="white"/>
</svg>
