<svg width="27" height="26" viewBox="0 0 27 26" fill="none" xmlns="http://www.w3.org/2000/svg">
<mask id="path-1-inside-1_534_2970" fill="white">
<path d="M0 13C0 5.8203 5.8203 0 13 0H13.7429C20.9226 0 26.7429 5.8203 26.7429 13C26.7429 20.1797 20.9226 26 13.7429 26H13C5.8203 26 0 20.1797 0 13Z"/>
</mask>
<path d="M0 13C0 5.8203 5.8203 0 13 0H13.7429C20.9226 0 26.7429 5.8203 26.7429 13C26.7429 20.1797 20.9226 26 13.7429 26H13C5.8203 26 0 20.1797 0 13Z" fill="#252525"/>
<path d="M13 0C13.2476 0.035727 13.4952 0.0711349 13.7429 0.106224C14.8742 0.267407 15.9595 0.568511 16.9728 0.993627C22.0807 3.10036 24.9461 8.32252 24.4663 13C24.0594 18.702 19.0195 23.1062 13.7429 23C13.4952 23 13.2476 23.0003 13 23.001C7.72428 23.1261 2.64821 18.732 2.22297 13C1.75765 8.50507 4.3368 3.49017 9.08988 1.19731C10.2913 0.609481 11.6115 0.199587 13 0C11.6121 -0.200606 10.163 -0.169798 8.73154 0.115094C3.08454 1.13235 -1.91761 6.56772 -2.22297 13C-2.98495 21.1172 4.42653 29.2106 13 28.999C13.2476 28.9997 13.4952 29 13.7429 29C22.3154 29.2306 29.7631 21.1472 29.0194 13C28.7243 6.23631 23.2368 0.602101 17.2682 -0.107428C16.0808 -0.273155 14.8922 -0.267795 13.7429 -0.106224C13.4952 -0.0711349 13.2476 -0.035727 13 0Z" fill="#ECA900" mask="url(#path-1-inside-1_534_2970)"/>
<path d="M11.8998 4.43952C11.8998 3.72652 12.4748 3.26652 13.1878 3.26652C13.9008 3.26652 14.4528 3.72652 14.4528 4.43952C14.4528 5.15251 13.9008 5.63552 13.1878 5.63552C12.4748 5.63552 11.8998 5.15251 11.8998 4.43952ZM14.1998 9.61452V17.9175C14.1998 18.2625 14.3148 18.4465 14.6598 18.4925L16.2008 18.6305V19.2285H10.1748V18.6305L11.7158 18.4925C12.0608 18.4695 12.1758 18.2625 12.1758 17.9175V9.06251C12.1758 8.71752 12.0608 8.60252 11.7158 8.60252H10.1748V8.00451L14.1998 7.49851L14.3838 7.68251C14.2688 8.14252 14.1998 8.83252 14.1998 9.61452Z" fill="#ECA900"/>
</svg>
