<svg width="173" height="55" viewBox="0 0 173 55" fill="none" xmlns="http://www.w3.org/2000/svg">
<mask id="path-1-outside-1_534_2906" maskUnits="userSpaceOnUse" x="-4.45856e-06" y="-1.74846e-07" width="173" height="55" fill="black">
<rect fill="white" x="-4.45856e-06" y="-1.74846e-07" width="173" height="55"/>
<path d="M171 33C171 42.9411 162.941 51 153 51L23 51C13.0589 51 5 42.9411 5 33L5 23C5 13.0589 13.0589 5 23 5L153 4.99999C162.941 4.99999 171 13.0589 171 23L171 33Z"/>
</mask>
<path d="M171 33C171 42.9411 162.941 51 153 51L23 51C13.0589 51 5 42.9411 5 33L5 23C5 13.0589 13.0589 5 23 5L153 4.99999C162.941 4.99999 171 13.0589 171 23L171 33Z" fill="#252525"/>
<path d="M153 51C146.448 50.7 139.897 50.415 133.345 50.145C96.5633 48.6292 59.7816 47.5862 23 47.0159C15.5326 47.0411 9.05934 40.2644 9.32934 33C9.35907 29.6667 9.38492 26.3333 9.40687 23C9.29579 15.7651 15.8199 9.32287 23 9.5C66.3333 9.5 109.667 8.8438 153 7.53143C161.208 7.02266 169.253 14.2342 169.418 23C169.541 26.3333 169.668 29.6667 169.798 33C169.914 35.6875 169.381 38.4181 168.22 40.9014C165.622 46.6002 159.595 50.7635 153 51C159.576 51.3788 166.36 47.71 169.737 41.6906C171.235 39.0756 172.093 36.0651 172.202 33C172.332 29.6667 172.459 26.3333 172.582 23C173.213 12.59 163.968 2.51106 153 2.46855C109.667 1.15618 66.3333 0.499998 23 0.500001C11.0043 0.210879 0.237957 11.0591 0.593122 23C0.61508 26.3333 0.640928 29.6667 0.670653 33C0.474395 44.9114 11.2916 55.4252 23 54.9841C59.7816 54.4138 96.5633 53.3708 133.345 51.855C139.897 51.585 146.448 51.3 153 51Z" fill="#ECA900" mask="url(#path-1-outside-1_534_2906)"/>
<path d="M41.98 28.64L42.7 28.84C41.98 32.14 39.8 33.2 37.66 33.2C33.64 33.2 31.02 30.28 31.02 26.2C31.02 22.14 33.84 19.2 37.78 19.2C39.78 19.2 41.42 19.84 42.3 20.32V23.56H41.7C40.86 20.72 39.6 19.9 37.9 19.9C35.26 19.9 33.66 22.24 33.66 26.2C33.66 30.18 35.32 32.4 37.9 32.4C39.58 32.4 41.4 31.42 41.98 28.64ZM48.845 23.5C47.245 23.5 46.285 25 46.285 28C46.285 31 47.245 32.5 48.845 32.5C50.445 32.5 51.405 30.96 51.405 28C51.405 25 50.425 23.5 48.845 23.5ZM48.845 33.2C45.885 33.2 43.885 30.94 43.885 28C43.885 25.06 45.885 22.8 48.845 22.8C51.785 22.8 53.805 25.06 53.805 28C53.805 30.94 51.785 33.2 48.845 33.2ZM58.8903 25.58H58.9303C59.7303 23.52 61.0703 22.8 62.5503 22.8C63.9903 22.8 65.1303 23.66 65.2703 25.58H65.3103C66.1303 23.52 67.4703 22.8 68.9503 22.8C70.3903 22.8 71.6903 23.72 71.6903 25.92V31.76C71.6903 32.06 71.8103 32.2 72.0903 32.26L73.2503 32.4V33H68.2903V32.4L69.1103 32.26C69.3903 32.2 69.4503 32.04 69.4503 31.76V26.16C69.4503 25.12 69.0303 24.34 67.8303 24.34C66.1503 24.34 65.2903 26.16 65.2903 27.68V31.76C65.2903 32.06 65.4103 32.2 65.6903 32.26L66.8503 32.4V33H61.8903V32.4L62.7103 32.26C62.9903 32.2 63.0503 32.04 63.0503 31.76V26.16C63.0503 25.12 62.6303 24.34 61.4303 24.34C59.7503 24.34 58.8903 26.16 58.8903 27.68V31.76C58.8903 32.06 59.0103 32.2 59.2903 32.26L60.4503 32.4V33H55.0903V32.4L56.2503 32.26C56.5303 32.22 56.6503 32.04 56.6503 31.76V24.34C56.6503 24.06 56.5303 23.94 56.2503 23.94H55.0903V23.34L58.8903 22.8L59.0503 22.96C58.9503 23.38 58.8903 23.96 58.8903 24.64V25.58ZM77.8161 25.58H77.8561C78.6561 23.52 79.9961 22.8 81.4761 22.8C82.9161 22.8 84.0561 23.66 84.1961 25.58H84.2361C85.0561 23.52 86.3961 22.8 87.8761 22.8C89.3161 22.8 90.6161 23.72 90.6161 25.92V31.76C90.6161 32.06 90.7361 32.2 91.0161 32.26L92.1761 32.4V33H87.2161V32.4L88.0361 32.26C88.3161 32.2 88.3761 32.04 88.3761 31.76V26.16C88.3761 25.12 87.9561 24.34 86.7561 24.34C85.0761 24.34 84.2161 26.16 84.2161 27.68V31.76C84.2161 32.06 84.3361 32.2 84.6161 32.26L85.7761 32.4V33H80.8161V32.4L81.6361 32.26C81.9161 32.2 81.9761 32.04 81.9761 31.76V26.16C81.9761 25.12 81.5561 24.34 80.3561 24.34C78.6761 24.34 77.8161 26.16 77.8161 27.68V31.76C77.8161 32.06 77.9361 32.2 78.2161 32.26L79.3761 32.4V33H74.0161V32.4L75.1761 32.26C75.4561 32.22 75.5761 32.04 75.5761 31.76V24.34C75.5761 24.06 75.4561 23.94 75.1761 23.94H74.0161V23.34L77.8161 22.8L77.9761 22.96C77.8761 23.38 77.8161 23.96 77.8161 24.64V25.58ZM98.2619 23.5C96.7219 23.5 95.7819 25.06 95.6219 26.84H100.222C100.502 24.68 99.7019 23.5 98.2619 23.5ZM102.222 27.5H95.5819C95.4619 30.12 96.8219 31.92 99.0819 31.92C100.202 31.92 101.042 31.44 101.762 30.82L102.102 31.26C101.422 32.2 100.082 33.2 98.1819 33.2C95.2019 33.2 93.1819 31.16 93.1819 28.04C93.1819 24.62 95.8019 22.8 98.3019 22.8C100.382 22.8 102.742 23.96 102.222 27.5ZM107.386 22.8L107.546 22.96C107.446 23.38 107.386 23.96 107.386 24.64V25.58H107.426C108.226 23.52 109.566 22.8 111.046 22.8C112.486 22.8 113.786 23.72 113.786 25.92V31.76C113.786 32.06 113.906 32.2 114.186 32.26L115.346 32.4V33H110.386V32.4L111.206 32.26C111.486 32.2 111.546 32.04 111.546 31.76V26.16C111.546 25.12 111.126 24.34 109.926 24.34C108.246 24.34 107.386 26.16 107.386 27.68V31.76C107.386 32.06 107.506 32.2 107.786 32.26L108.946 32.4V33H103.586V32.4L104.746 32.26C105.026 32.22 105.146 32.04 105.146 31.76V24.34C105.146 24.06 105.026 23.94 104.746 23.94H103.586V23.34L107.386 22.8ZM121.346 33.2C118.306 33.2 116.346 31.12 116.346 28.04C116.346 24.64 118.986 22.8 121.626 22.8C123.806 22.8 125.226 23.66 125.226 24.48C125.226 25.38 124.226 25.62 123.766 25.1C123.146 24.44 122.826 23.5 121.546 23.5C119.626 23.5 118.746 25.4 118.746 27.48C118.746 30.38 120.066 31.92 122.246 31.92C123.406 31.92 124.246 31.4 124.926 30.82L125.266 31.26C124.606 32.16 123.266 33.2 121.346 33.2ZM131.66 23.5C130.12 23.5 129.18 25.06 129.02 26.84H133.62C133.9 24.68 133.1 23.5 131.66 23.5ZM135.62 27.5H128.98C128.86 30.12 130.22 31.92 132.48 31.92C133.6 31.92 134.44 31.44 135.16 30.82L135.5 31.26C134.82 32.2 133.48 33.2 131.58 33.2C128.6 33.2 126.58 31.16 126.58 28.04C126.58 24.62 129.2 22.8 131.7 22.8C133.78 22.8 136.14 23.96 135.62 27.5ZM140.785 25.66H140.825C141.525 23.5 142.765 22.8 143.605 22.8C144.325 22.8 144.825 23.26 144.825 23.96C144.825 24.8 143.985 25.26 143.185 24.88C141.925 24.28 140.785 25.88 140.785 27.68V31.76C140.785 32.06 140.905 32.22 141.185 32.26L142.985 32.4V33H136.985V32.4L138.145 32.26C138.425 32.22 138.545 32.04 138.545 31.76V24.34C138.545 24.06 138.425 23.94 138.145 23.94H136.985V23.34L140.785 22.8L140.945 22.96C140.845 23.38 140.785 23.96 140.785 24.64V25.66Z" fill="white"/>
</svg>
