<svg width="272" height="72" viewBox="0 0 272 72" fill="none" xmlns="http://www.w3.org/2000/svg">
<mask id="path-1-outside-1_461_2583" maskUnits="userSpaceOnUse" x="-5.85733e-06" y="-1.74846e-07" width="272" height="72" fill="black">
<rect fill="white" x="-5.85733e-06" y="-1.74846e-07" width="272" height="72"/>
<path d="M270 49C270 58.9411 261.941 67 252 67L23 67C13.0589 67 5 58.9411 5 49L5 23C5 13.0589 13.0589 5 23 5L252 4.99998C261.941 4.99998 270 13.0589 270 23L270 49Z"/>
</mask>
<path d="M270 49C270 58.9411 261.941 67 252 67L23 67C13.0589 67 5 58.9411 5 49L5 23C5 13.0589 13.0589 5 23 5L252 4.99998C261.941 4.99998 270 13.0589 270 23L270 49Z" fill="#252525"/>
<path d="M252 67C241.615 66.7 231.23 66.415 220.845 66.145C154.897 64.4304 88.9483 63.3207 23 62.816C15.6417 62.9209 9.13132 56.2528 9.36343 49C9.40704 40.3334 9.44021 31.6667 9.46292 23C9.30996 15.7945 15.8162 9.32076 23 9.5C99.3333 9.5 175.667 8.68958 252 7.06876C260.465 6.64474 268.541 14.1601 268.569 23C268.753 30.7068 268.945 38.4136 269.145 46.1204C269.17 47.0802 269.195 48.0401 269.22 49C269.711 58.1492 261.608 66.9373 252 67C261.568 67.5289 270.756 59.0266 270.78 49C270.805 48.0401 270.83 47.0802 270.855 46.1204C271.055 38.4136 271.247 30.7068 271.431 23C271.926 12.6641 262.711 2.88895 252 2.93121C175.667 1.31039 99.3333 0.499992 23 0.500006C11.008 0.212982 0.22375 11.0298 0.537075 23C0.559781 31.6667 0.592954 40.3334 0.636565 49C0.402435 60.923 11.1824 71.5454 23 71.1841C88.9483 70.6793 154.897 69.5696 220.845 67.855C231.23 67.585 241.615 67.3 252 67Z" fill="#ECA900" mask="url(#path-1-outside-1_461_2583)"/>
<path d="M39.072 22.968V43.488C39.072 46.98 37.704 51.048 31.368 52.2L30.828 51.192C33.06 50.004 33.6 48.096 33.6 45V22.968C33.6 22.428 33.384 22.14 32.88 22.068L30.828 21.78V20.52H41.844V21.78L39.792 22.068C39.288 22.14 39.072 22.392 39.072 22.968ZM46.5653 24.12C45.2693 24.12 44.5853 23.076 44.5853 22.068C44.5853 21.06 45.2693 19.8 46.9253 19.8C48.9413 19.8 49.9853 21.636 49.9853 23.112C49.9853 26.532 47.3573 28.44 45.5933 29.34L44.9093 28.332C46.2413 27.576 47.7533 26.352 47.7533 25.128C47.7533 24.516 47.3933 24.12 46.5653 24.12ZM64.2661 38.412V35.748L61.9621 36.468C60.0541 37.116 59.1901 38.196 59.1901 39.888C59.1901 41.472 59.9821 42.336 61.3861 42.336C63.1501 42.336 64.2661 40.824 64.2661 38.412ZM69.1621 32.364V42.66C69.1621 43.2 69.3781 43.488 69.8821 43.56L71.6461 43.74V45C69.4861 45.18 67.6141 45.36 66.2101 45.36C65.1301 45.36 64.2661 45.144 64.2661 43.956V41.796H64.1941C63.1861 44.208 61.1701 45.36 58.7221 45.36C55.8421 45.36 53.9701 43.524 53.9701 40.896C53.9701 38.052 55.7701 36.54 59.2981 35.676L64.2661 34.452V32.58C64.2661 30.564 62.8261 29.484 60.7741 29.484C58.9741 29.484 57.3541 29.988 55.9141 30.924L55.2661 30.096C56.2381 28.692 58.6861 26.64 62.5741 26.64C66.0301 26.64 69.1621 28.44 69.1621 32.364ZM74.6465 21.924C74.6465 20.34 75.9065 19.404 77.4905 19.404C79.0745 19.404 80.2985 20.34 80.2985 21.924C80.2985 23.508 79.0745 24.48 77.4905 24.48C75.9065 24.48 74.6465 23.508 74.6465 21.924ZM79.9385 29.988V42.552C79.9385 43.092 80.1545 43.38 80.6585 43.452L82.4225 43.74V45H72.5585V43.74L74.3225 43.452C74.8265 43.38 75.0425 43.092 75.0425 42.552V29.772C75.0425 29.232 74.8265 29.052 74.3225 29.052H72.5585V27.756L79.9385 26.64L80.2265 26.928C80.0465 27.72 79.9385 28.764 79.9385 29.988ZM91.5336 27.396L93.5496 27.18C94.2696 27.108 94.8096 26.712 95.2416 26.1L97.5816 22.68H98.8056V27H103.09V28.512H98.8056V40.752C98.8056 42.912 99.7056 43.272 101.038 43.272C101.686 43.272 102.514 43.092 103.234 42.768L103.45 44.1C102.118 44.82 100.102 45.36 98.1936 45.36C95.4936 45.36 93.9096 44.568 93.9096 41.544V28.512H91.5336V27.396ZM114.694 28.116C112.138 28.116 110.806 30.924 110.554 33.912H117.646C118.186 30.096 117.034 28.116 114.694 28.116ZM121.966 35.208H110.518C110.338 39.348 112.462 42.624 116.422 42.624C118.33 42.624 119.842 41.796 121.102 40.716L121.786 41.616C120.598 43.344 118.078 45.36 114.478 45.36C109.186 45.36 105.298 41.904 105.298 36.144C105.298 29.808 110.266 26.64 114.766 26.64C118.618 26.64 122.974 28.692 121.966 35.208ZM131.583 31.572H131.655C132.915 27.648 135.039 26.64 136.479 26.64C137.955 26.64 138.999 27.612 138.999 29.088C138.999 30.888 137.235 31.896 135.543 31.032C133.383 29.988 131.583 32.328 131.583 35.244V42.552C131.583 43.092 131.799 43.416 132.303 43.452L135.363 43.74V45H124.203V43.74L125.967 43.452C126.471 43.38 126.687 43.092 126.687 42.552V29.772C126.687 29.232 126.471 29.052 125.967 29.052H124.203V27.756L131.583 26.64L131.871 26.928C131.691 27.72 131.583 28.764 131.583 29.988V31.572ZM147.614 31.464H147.686C149.09 27.864 151.466 26.64 154.094 26.64C156.758 26.64 158.774 28.26 159.098 31.464H159.17C160.574 27.864 162.986 26.64 165.614 26.64C168.278 26.64 170.654 28.368 170.654 32.328V42.552C170.654 43.092 170.87 43.38 171.374 43.452L173.138 43.74V45H163.994V43.74L165.182 43.452C165.686 43.344 165.758 43.092 165.758 42.552V32.76C165.758 31.176 165.002 29.988 163.166 29.988C160.502 29.988 159.134 32.724 159.134 35.244V42.552C159.134 43.092 159.35 43.38 159.854 43.452L161.618 43.74V45H152.474V43.74L153.662 43.452C154.166 43.344 154.238 43.092 154.238 42.552V32.76C154.238 31.176 153.482 29.988 151.646 29.988C148.982 29.988 147.614 32.724 147.614 35.244V42.552C147.614 43.092 147.83 43.38 148.334 43.452L150.098 43.74V45H140.234V43.74L141.998 43.452C142.502 43.38 142.718 43.092 142.718 42.552V29.772C142.718 29.232 142.502 29.052 141.998 29.052H140.234V27.756L147.614 26.64L147.902 26.928C147.722 27.72 147.614 28.764 147.614 29.988V31.464ZM176.459 21.924C176.459 20.34 177.719 19.404 179.303 19.404C180.887 19.404 182.111 20.34 182.111 21.924C182.111 23.508 180.887 24.48 179.303 24.48C177.719 24.48 176.459 23.508 176.459 21.924ZM181.751 29.988V42.552C181.751 43.092 181.967 43.38 182.471 43.452L184.235 43.74V45H174.371V43.74L176.135 43.452C176.639 43.38 176.855 43.092 176.855 42.552V29.772C176.855 29.232 176.639 29.052 176.135 29.052H174.371V27.756L181.751 26.64L182.039 26.928C181.859 27.72 181.751 28.764 181.751 29.988ZM192.825 26.64L193.113 26.928C192.933 27.72 192.825 28.764 192.825 29.988V31.464H192.897C194.301 27.864 196.677 26.64 199.305 26.64C201.969 26.64 204.345 28.368 204.345 32.328V42.552C204.345 43.092 204.561 43.38 205.065 43.452L206.829 43.74V45H197.685V43.74L198.873 43.452C199.377 43.344 199.449 43.092 199.449 42.552V32.76C199.449 31.176 198.693 29.988 196.857 29.988C194.193 29.988 192.825 32.724 192.825 35.244V42.552C192.825 43.092 193.041 43.38 193.545 43.452L195.309 43.74V45H185.445V43.74L187.209 43.452C187.713 43.38 187.929 43.092 187.929 42.552V29.772C187.929 29.232 187.713 29.052 187.209 29.052H185.445V27.756L192.825 26.64ZM217.843 28.116C215.287 28.116 213.955 30.924 213.703 33.912H220.795C221.335 30.096 220.183 28.116 217.843 28.116ZM225.115 35.208H213.667C213.487 39.348 215.611 42.624 219.571 42.624C221.479 42.624 222.991 41.796 224.251 40.716L224.935 41.616C223.747 43.344 221.227 45.36 217.627 45.36C212.335 45.36 208.447 41.904 208.447 36.144C208.447 29.808 213.415 26.64 217.915 26.64C221.767 26.64 226.123 28.692 225.115 35.208ZM216.079 24.516L220.579 20.844C221.695 19.944 223.279 20.7 223.279 21.96C223.279 23.04 222.523 23.436 221.803 23.652L216.475 25.38L216.079 24.516ZM237.376 42.984C237.376 41.724 238.42 40.644 239.716 40.644C241.012 40.644 242.092 41.724 242.092 42.984C242.092 44.28 241.012 45.36 239.716 45.36C238.42 45.36 237.376 44.28 237.376 42.984ZM240.364 38.448H239.104L237.124 22.788C236.944 21.456 237.844 20.16 239.716 20.16C241.624 20.16 242.488 21.528 242.344 22.788L240.364 38.448Z" fill="white"/>
</svg>
