<svg width="142" height="142" viewBox="0 0 142 142" fill="none" xmlns="http://www.w3.org/2000/svg">
<g filter="url(#filter0_d_461_2594)">
<mask id="path-1-inside-1_461_2594" fill="white">
<circle cx="71" cy="71" r="50"/>
</mask>
<path d="M121 71C120.902 76.244 119.99 81.4439 118.294 86.3682C111.689 106.276 91.6198 120.38 71 119.875C44.9713 120.225 21.884 96.8082 22.5 71C21.884 45.1918 44.9713 21.775 71 22.125C91.6198 21.6198 111.689 35.7243 118.294 55.6318C119.99 60.5561 120.902 65.756 121 71C121.102 65.7563 120.379 60.4932 118.836 55.4557C112.888 35.0985 92.6056 19.7563 71 19.875C43.7626 18.9299 18.8208 43.5421 19.5 71C18.8208 98.4579 43.7626 123.07 71 122.125C92.6056 122.244 112.888 106.902 118.836 86.5443C120.379 81.5068 121.102 76.2437 121 71Z" fill="white" mask="url(#path-1-inside-1_461_2594)"/>
</g>
<defs>
<filter id="filter0_d_461_2594" x="0" y="0" width="142" height="142" filterUnits="userSpaceOnUse" color-interpolation-filters="sRGB">
<feFlood flood-opacity="0" result="BackgroundImageFix"/>
<feColorMatrix in="SourceAlpha" type="matrix" values="0 0 0 0 0 0 0 0 0 0 0 0 0 0 0 0 0 0 127 0" result="hardAlpha"/>
<feMorphology radius="1" operator="dilate" in="SourceAlpha" result="effect1_dropShadow_461_2594"/>
<feOffset/>
<feGaussianBlur stdDeviation="10"/>
<feComposite in2="hardAlpha" operator="out"/>
<feColorMatrix type="matrix" values="0 0 0 0 0 0 0 0 0 0 0 0 0 0 0 0 0 0 1 0"/>
<feBlend mode="normal" in2="BackgroundImageFix" result="effect1_dropShadow_461_2594"/>
<feBlend mode="normal" in="SourceGraphic" in2="effect1_dropShadow_461_2594" result="shape"/>
</filter>
</defs>
</svg>
